<svg width="252" height="71" viewBox="0 0 252 71" fill="none" xmlns="http://www.w3.org/2000/svg">
<path d="M0 11.8225C0 5.29312 5.29312 0 11.8225 0H35.1719C54.5969 0 70.3439 15.747 70.3439 35.172C70.3439 54.5969 54.5969 70.3439 35.172 70.3439H11.8225C5.29312 70.3439 0 65.0508 0 58.5214V11.8225Z" fill="#3182F6"/>
<g clip-path="url(#clip0_2052_264)">
<path d="M54.2535 39.425C54.4075 38.2026 54.1294 37.0967 53.4483 36.2273L53.439 36.2159C53.1264 35.8247 52.7432 35.4955 52.3092 35.2455L52.2615 35.218C50.2129 34.076 47.1428 34.6049 44.6228 36.5349C42.7778 37.9451 41.5363 39.8905 41.3019 41.7395C41.1467 42.9621 41.4263 44.069 42.111 44.9405L42.1186 44.9498C42.4312 45.3411 42.8144 45.6703 43.2483 45.9202C45.2987 47.104 48.3904 46.5876 50.9491 44.6351C52.7832 43.2217 54.0194 41.2751 54.2535 39.425ZM39.8166 45.6895C39.0516 44.3094 38.3288 43.0044 38.2961 41.3909C38.2122 36.9285 38.1609 34.2347 35.0019 32.4108C31.8428 30.5869 29.4813 31.8878 25.5703 34.0437C24.1543 34.8227 22.66 34.8487 21.0768 34.8771C19.2621 34.909 17.3871 34.9418 15.8356 36.2411C15.2593 36.6997 14.7763 37.2645 14.4128 37.905C12.8652 40.5854 13.6938 43.9715 16.2586 45.4523C17.582 46.2164 19.2552 46.571 21.0259 46.9462C22.7284 47.3068 24.4884 47.6797 25.7693 48.4193C27.0502 49.1588 28.2495 50.4944 29.4078 51.7855C30.6168 53.1267 31.7538 54.3945 33.0809 55.1607C35.642 56.6394 38.9851 55.6617 40.5326 52.9813C40.9032 52.3442 41.1483 51.6421 41.2546 50.9128C41.605 48.9181 40.6956 47.2767 39.8166 45.6895ZM28.6117 25.2271C28.8562 26.8525 29.6282 28.1154 30.7854 28.7835C30.9434 28.8747 31.1079 28.954 31.2776 29.0209C33.896 30.0595 37.1002 27.9826 38.5756 24.2873C39.1968 22.7343 39.4161 21.0804 39.1974 19.634C38.953 18.0116 38.1791 16.7486 37.0227 16.081C36.8647 15.9898 36.7002 15.9104 36.5305 15.8435C33.9121 14.805 30.7079 16.8818 29.2325 20.5771C28.6118 22.1275 28.3934 23.7799 28.6117 25.2271ZM39.8005 33.9416C39.9433 34.0551 40.0942 34.1579 40.2522 34.2491C41.4101 34.9177 42.889 34.9544 44.419 34.3534C45.7807 33.8184 47.0995 32.8014 48.1356 31.4889C50.5973 28.365 50.7938 24.5517 48.5861 22.8018C48.4433 22.6883 48.2923 22.5856 48.1344 22.4943C46.9771 21.8281 45.4963 21.7894 43.9692 22.3889C42.6072 22.9228 41.2845 23.9396 40.25 25.2561C37.7884 28.3799 37.5919 32.1933 39.8005 33.9416ZM20.5844 32.517L20.597 32.5193C21.6927 32.6758 22.7898 32.3648 23.7699 31.6194C25.2556 30.4889 26.3192 28.4437 26.6193 26.1416C27.0343 22.9554 25.9369 20.0195 23.8887 18.837C23.4554 18.5859 22.9787 18.4186 22.4835 18.3438L22.4709 18.3415C21.3792 18.1834 20.2803 18.4973 19.3002 19.2427C17.8145 20.3732 16.751 22.4184 16.4508 24.7205C16.0358 27.9067 17.1332 30.8426 19.1814 32.0251C19.6141 32.2755 20.0901 32.4423 20.5844 32.517Z" fill="white"/>
</g>
<path d="M125.325 13.506C125.325 12.0428 125.775 10.8798 126.675 10.0169C127.576 9.11652 128.776 8.66632 130.277 8.66632C131.778 8.66632 132.959 9.11652 133.822 10.0169C134.723 10.8798 135.173 12.0428 135.173 13.506V38.4359H125.325V28.025H122.511V38.4359H112.944V13.3934C112.944 11.9678 113.376 10.8235 114.238 9.96065C115.101 9.09776 116.264 8.66632 117.728 8.66632C119.191 8.66632 120.354 9.09776 121.217 9.96065C122.079 10.8235 122.511 11.9678 122.511 13.3934V19.246H125.325V13.506ZM86.3823 50.9289C86.3823 47.665 87.414 45.0576 89.4774 43.1067C91.5784 41.1558 94.6172 40.1804 98.594 40.1804H123.299C127.276 40.1804 130.296 41.1558 132.359 43.1067C134.46 45.0576 135.51 47.665 135.51 50.9289C135.51 54.1929 134.46 56.8003 132.359 58.7512C130.296 60.702 127.276 61.6775 123.299 61.6775H98.594C94.6172 61.6775 91.5784 60.6833 89.4774 58.6949C87.414 56.744 86.3823 54.1554 86.3823 50.9289ZM97.8062 50.9289C97.8062 51.8293 98.1063 52.5797 98.7066 53.1799C99.3443 53.7427 100.245 54.0241 101.408 54.0241H120.541C121.704 54.0241 122.586 53.7427 123.186 53.1799C123.787 52.5797 124.087 51.8293 124.087 50.9289C124.087 50.0285 123.787 49.297 123.186 48.7342C122.586 48.1339 121.704 47.8338 120.541 47.8338H101.408C100.245 47.8338 99.3443 48.1339 98.7066 48.7342C98.1063 49.297 97.8062 50.0285 97.8062 50.9289ZM90.7718 37.029C88.4082 37.029 86.7575 36.56 85.8196 35.6221C84.8816 34.6467 84.4127 33.0334 84.4127 30.7824V16.5448C84.4127 14.2938 84.8816 12.6994 85.8196 11.7615C86.7575 10.8235 88.4082 10.3546 90.7718 10.3546H105.066C106.566 10.3546 107.636 10.786 108.273 11.6489C108.949 12.4743 109.286 13.4872 109.286 14.6878C109.286 15.8883 108.949 16.92 108.273 17.7829C107.598 18.6458 106.529 19.0772 105.066 19.0772H96.2867C95.5739 19.0772 95.2175 19.4524 95.2175 20.2027V27.2934C95.2175 28.0437 95.5739 28.4189 96.2867 28.4189H106.641C108.142 28.4189 109.192 28.8503 109.793 29.7132C110.431 30.5386 110.749 31.5515 110.749 32.7521C110.749 33.9526 110.431 34.9656 109.793 35.7909C109.155 36.6163 108.105 37.029 106.641 37.029H90.7718Z" fill="#111111"/>
<path d="M145.753 50.4787C148.304 49.991 150.405 49.2594 152.055 48.284C153.744 47.2711 155.038 45.7141 155.938 43.6132C156.876 41.5122 157.345 38.6422 157.345 35.0031V21.7784C157.345 21.3657 157.214 21.0281 156.951 20.7655C156.726 20.5029 156.389 20.3715 155.938 20.3715H147.103C145.527 20.3715 144.289 19.9213 143.389 19.0209C142.526 18.083 142.095 16.9763 142.095 15.7007C142.095 14.4251 142.526 13.2996 143.389 12.3242C144.252 11.3113 145.49 10.8048 147.103 10.8048H160.103C162.841 10.8048 164.811 11.405 166.012 12.6056C167.212 13.7686 167.812 15.6069 167.812 18.1205V35.0594C167.812 42.9379 165.993 48.8468 162.354 52.786C158.715 56.6878 153.837 59.0138 147.722 59.7641C147.122 59.8392 146.709 59.8767 146.484 59.8767C144.983 59.8767 143.764 59.4452 142.826 58.5824C141.888 57.7195 141.419 56.6315 141.419 55.3184C141.419 54.0428 141.776 52.9924 142.489 52.167C143.239 51.3041 144.327 50.7414 145.753 50.4787ZM183.851 13.506C183.851 12.0428 184.301 10.8798 185.201 10.0169C186.102 9.11652 187.302 8.66632 188.803 8.66632C190.304 8.66632 191.485 9.11652 192.348 10.0169C193.249 10.8798 193.699 12.0428 193.699 13.506V61.5087H183.851V38.4359H181.037V61.5087H171.189V13.506C171.189 12.0428 171.639 10.8798 172.54 10.0169C173.44 9.11652 174.64 8.66632 176.141 8.66632C177.642 8.66632 178.824 9.11652 179.686 10.0169C180.587 10.8798 181.037 12.0428 181.037 13.506V29.0942H183.851V13.506Z" fill="#111111"/>
<path d="M240.126 14.2376C240.126 12.4743 240.67 11.1049 241.758 10.1295C242.846 9.15404 244.178 8.66632 245.753 8.66632C247.329 8.66632 248.661 9.15404 249.749 10.1295C250.837 11.1049 251.381 12.4743 251.381 14.2376V39.5614H240.126V14.2376ZM203.716 51.4917C203.716 48.3778 204.71 45.9017 206.699 44.0634C208.687 42.2251 211.632 41.3059 215.534 41.3059H240.182C244.084 41.3059 247.029 42.2251 249.017 44.0634C251.006 45.8642 252 48.3403 252 51.4917C252 54.6056 251.006 57.0817 249.017 58.92C247.029 60.7583 244.084 61.6775 240.182 61.6775H215.534C211.632 61.6775 208.687 60.7396 206.699 58.8637C204.71 57.0254 203.716 54.5681 203.716 51.4917ZM215.14 51.4917C215.14 52.2795 215.402 52.9173 215.928 53.405C216.453 53.8928 217.222 54.1366 218.235 54.1366H237.537C238.55 54.1366 239.301 53.8928 239.788 53.405C240.314 52.9173 240.576 52.2795 240.576 51.4917C240.576 50.7038 240.314 50.0661 239.788 49.5783C239.301 49.0906 238.55 48.8468 237.537 48.8468H218.235C217.222 48.8468 216.453 49.0906 215.928 49.5783C215.402 50.0661 215.14 50.7038 215.14 51.4917ZM229.94 20.9343C232.604 20.9343 233.936 22.1911 233.936 24.7047C233.936 25.8677 233.598 26.7682 232.923 27.4059C232.247 28.0437 231.253 28.3626 229.94 28.3626H213.001V29.9383C213.001 30.426 213.114 30.7824 213.339 31.0075C213.564 31.1951 213.939 31.2889 214.464 31.2889H233.936C235.249 31.2889 236.187 31.6453 236.749 32.3581C237.35 33.071 237.65 34.0089 237.65 35.1719C237.65 36.3349 237.35 37.2728 236.749 37.9857C236.149 38.661 235.211 38.9986 233.936 38.9986H210.638C208.349 38.9986 206.586 38.7735 205.348 38.3233C204.147 37.8731 203.285 37.1228 202.759 36.0723C202.272 34.9843 202.028 33.4649 202.028 31.514V17.7829C202.028 15.832 202.272 14.3314 202.759 13.2809C203.285 12.2304 204.147 11.4801 205.348 11.0299C206.586 10.5797 208.349 10.3546 210.638 10.3546H230.784C232.097 10.3546 233.035 10.711 233.598 11.4238C234.198 12.1366 234.498 13.0745 234.498 14.2376C234.498 15.4381 234.198 16.3948 233.598 17.1076C232.998 17.8204 232.06 18.1768 230.784 18.1768H214.464C213.939 18.1768 213.564 18.2894 213.339 18.5145C213.114 18.7021 213.001 19.0397 213.001 19.5274V20.9343H229.94Z" fill="#111111"/>
<defs>
<clipPath id="clip0_2052_264">
<rect width="44.0799" height="44.0799" fill="white" transform="translate(25.5571 4.68958) rotate(30)"/>
</clipPath>
</defs>
</svg>
